<?xml version="1.0" encoding="utf-8"?>
<!-- Generator: Adobe Illustrator 26.3.1, SVG Export Plug-In . SVG Version: 6.00 Build 0)  -->
<svg version="1.1" id="Layer_1" xmlns="http://www.w3.org/2000/svg" xmlns:xlink="http://www.w3.org/1999/xlink" x="0px" y="0px"
	 viewBox="0 0 490.5 75.1" style="enable-background:new 0 0 490.5 75.1;" xml:space="preserve">
<style type="text/css">
	.st0{fill:#924A36;}
</style>
<path class="st0" d="M436.2,28.9l1.6-2.9l1.6-2.9h51v-3.4h-25.9v-0.1H277.3l3.8-6.6l3.9-6.7l-24.5,35.5l-2.1,3.1L245.1,64L232,44.9
	l-2.5-3.6l-24-34.9l3.8,6.6l3.8,6.6H0V23h51l1.6,2.9l1.6,2.9l2.6,4.6l2.6,4.6H27.3l9.6,16.5l3.2,5.5h175.6v0.3h20.8l8.6,15l4.3-7.5
	l4.3-7.5h20.8v-3.4H256l4.6-8l4.6-8l5.1-8.9l5.1-8.9h28.9l-1.4,2.4h4l1.4-2.3h28.9l-1.4,2.3h3.9l1.3-2.3h28.9l-1.4,2.3h3.9l1.3-2.3
	h28.9l-1.6,2.7l-1.6,2.7l-4.6,8h3.9l2.1-3.6l2.1-3.6l1.8-3.1l1.8-3.2h28.6l-2.6,4.6l-2.6,4.7l-2.6,4.6l-2.6,4.6h32.1l-2.2,3.7
	l-2.1,3.8l-2.2,3.8l-2.2,3.8h-61l1.6-2.7l1.5-2.7l2.3-4l2.3-4H391l-2.1,3.6l-2.1,3.6l-1.8,3.2l-1.8,3.1h-28.9l1.6-2.7l0.2-0.3h-3.9
	l-1.8,3.1h-28.9l1.6-2.7l0.3-0.4h-3.6l-1.7,3h-28.9l1.6-2.7l0.2-0.3h-3.9l-1.7,3H275v3.4h175.8l12.8-22H431l2.6-4.6L436.2,28.9z
	 M215.9,56.8v-0.3h-10.4l-1.3-2.2h-3.8l1.3,2.2h-28.9l-1.3-2.2h-4l1.3,2.2H140l-1.3-2.2h-4.2l1.3,2.2h-28.9l-1.8-3.1l-1.8-3.2
	l-2.1-3.6l-2.1-3.3h-3.9l4.6,8l1.6,2.7l1.6,2.7H42l-2.3-3.8l-2.2-3.8l-2.1-3.8l-2.2-3.8h32.1l-2.6-4.6l-2.6-4.6l-2.6-4.6l-2.6-4.6
	h28.6l1.8,3.1l1.8,3.1l2.1,3.6l2.1,3.6h3.9l-2.3-4l-2.3-4L89,25.7L87.4,23h28.9l1.7,2.8h3.9l-0.1-0.2l-1.6-2.7h28.9l1.8,2.8h3.9l0,0
	l-1.6-2.7H182l1.6,2.8h3.9l0,0l-1.6-2.7h28.9l5.1,8.9l5.1,8.8l4.6,8l4.6,8C234.2,56.8,215.9,56.8,215.9,56.8z"/>
<g>
	<path class="st0" d="M270.2,12.9c-0.1,0-0.3,0-0.4,0.1c-0.8,0.6-1.7,0.9-2.6,0.9c-2.3,0.1-4.8,0.1-7.3,0.3
		c-0.7,0.1-1.3,0.3-2.1,0.3h-0.9c-0.5,0.1-1,0.1-1.6,0.1c-0.3,0-0.4-0.1-0.7-0.1c-0.3-0.1-0.5-0.3-0.8-0.3
		c-3.7,0.1-7.4,0.1-11.1,0.1c-0.4,0-0.8,0-1-0.1c-2.2-1-4.4-2.2-6.6-3.4c-0.4-0.3-0.8-0.6-1.4-0.5c-0.1,0-0.4-0.1-0.5-0.3
		c-0.7-0.8-1.6-1.2-2.2-1.8c-1-0.9-2.2-1.2-3.5-0.8c-2.4,0.7-4.6,1.3-6.5,2.9c-0.5,0.4-0.4,1.2-0.8,1.7c0.3,1.7,0.5,3.5,0.6,5.4
		c0.1,0.9,0.7,1.7,1.1,2.6c0.1,0,0.1,0.1,0.3,0.1c1.7,1.2,3.4,2.3,5.5,2.9c0.6,0.1,1.3,0.4,1.9,0.5c-0.1,0.5-0.1,1-0.3,1.4
		c-0.1,1-0.3,2.1,0.5,2.9c0.8,0.6,1.6,1.3,2.5,1.4c0.4,0,0.5,0.3,0.5,0.6c0,0.7,0.1,1.2,0.3,1.8v0.5c0,0.1-0.1,0.4-0.1,0.5
		c0.1,1,0.5,1.8,1.3,2.5c0.3,0.3,0.4,0.4,0.8,0.1c0.3-0.1,0.5-0.3,0.8,0.1c-0.1,0.1-0.3,0.3-0.5,0.5c0.8,0.1,1.4,0.3,2.1,0.4
		c2.1,0.5,4,1.2,4.3,3.7c-0.1,0-0.3,0-0.4-0.1c-0.5-0.4-1.2-0.8-1.7-1.2c-0.7-0.4-1.2-0.8-1.8-1.2c-1-0.5-1.6-0.4-2.4,0.4
		c-0.1,0.1-0.3,0.1-0.4,0.3c-0.3,0.1-0.7,0.4-0.9,0.6c-0.3,0.3-0.5,0.8-0.8,1.2c-0.4,0.7-0.8,1.3-1.7,0.9c-0.1-0.1-0.1,0-0.3,0
		c-0.6,0.1-1.2,0.2-1.8,0.3s-1.2,0.2-1.8,0.3l2.3,3.3h32.6l1.4-2c-0.2-0.1-0.4-0.3-0.6-0.5c-0.1-0.1-0.1-0.1-0.3-0.1
		c-0.5-0.1-1-0.1-1.6-0.3c-0.4-0.1-0.7-0.1-1.1-0.2c-1.7-0.3-3.3-0.5-5-0.8l-0.1-0.1c0.4-0.3,0.8-0.7,1.2-0.9
		c0.1-0.3,0.5-0.3,0.5-0.7c0-0.1,0.3-0.3,0.4-0.3c0.3,0,0.5,0.1,0.8,0.3c0.7,0.5,1.6,0,1.6-0.8c0.1-0.9,0.1-1.7,0.3-2.6
		c0-0.5,0.1-1,0-1.6c0-0.5,0-0.6,0.5-0.8c-0.3-2-0.5-3.8-1.3-5.5c-0.3-0.7-0.8-1.1-1.6-1.1c-0.5,0-1.2-0.1-1.7-0.1
		c-3.1-0.1-6.1-0.4-9.3-0.4c-1.7,0-3.5,0.1-5.2,0.8c-0.1,0-0.3,0-0.4-0.1c-0.8-0.8-1.3-1.7-1.4-2.7c0-0.8,0.1-1.4-0.5-2.1
		c0.3,0.1,0.5,0.3,0.7,0.4c0.1,0.1,0.4,0.3,0.5,0.3c1-0.4,2-0.8,2.9-1.2c0.5-0.3,0.9-0.3,1.4-0.1c0.4,0.1,0.7,0.3,1,0.5
		c1.2,0.8,2.4,0.8,3.7,0.1c0.4-0.1,0.7-0.3,1-0.4c1.3-0.4,2.5-0.4,3.7,0.4c0.3,0.1,0.4,0.1,0.6,0.3c1.4,0.7,2.4,0.4,3.4-0.7
		c0.4-0.4,0.5-0.4,0.7,0.1c0,0.1,0.1,0.4,0.1,0.5c0.1,0.9,0.3,1.7,0.4,2.5c0,0.1,0.1,0.4,0.3,0.4s0.4-0.1,0.4-0.3
		c0.1-0.3,0.1-0.5,0.3-0.8c0.3-0.6,0.4-1.4,0.6-2.2c0.1-0.5,0.5-0.7,1.1-0.5c0.4,0,0.8,0.1,1.2,0.3c0.8,0.1,1.4-0.4,1.3-1.3
		c-0.1-0.5-0.4-1-0.5-1.4c1.3-0.9,2.7-2,4.2-2.9c-0.3-0.3-0.5-0.4-0.6-0.5c0.4-0.1,0.6-0.3,1-0.5c1-0.1,1.4-1,2-1.8
		C270.3,13.3,270.2,13,270.2,12.9z M245.7,33.1c0.1-0.7,0.5-1.2,1.2-1.4c1.3-0.5,2.6-0.8,3.9-0.8c1,0,2.2,0,3.3,0.1
		c2,0.1,3.6,2.3,3.3,4.4c0,0.4-0.3,0.8-0.8,0.8c-0.4,0-0.9,0-1.4,0.1c-0.6,0.1-1.2,0.4-1.8,0.5c0.1-0.4,0.3-0.8,0.7-1.2
		c0.1-0.7,0-1-0.7-1.2c-0.8-0.1-1.7-0.1-2.5-0.1c-0.5,0-0.8,0.5-0.7,1.1c0,0.1,0.1,0.4,0.3,0.6c0,0.3,0.1,0.5,0.3,0.8
		c-0.1,0-0.3,0-0.3,0c-1.4-0.8-3-0.7-4.4-0.9c-0.4,0-0.5-0.1-0.5-0.5C245.5,34.7,245.5,33.9,245.7,33.1z M237.6,32.6
		c-0.4-0.4-0.7-0.7-1-1l-0.8-1.2c-0.4-0.9-1-1.6-1.8-2.2c-0.5-0.3-0.9-0.9-1-1.4c-0.3-1-0.4-2.2-0.5-3.3c0-0.4,0.1-0.9,0.4-1.2
		c0.3-0.3,1.3,0,1.7,0.4c0.1,0.3,0.4,0.5,0.5,0.9c0.6,1.7,1.4,3.4,1.9,5.1c0.3,1.2,0.4,2.2,0.7,3.4L237.6,32.6L237.6,32.6z"/>
	<polygon class="st0" points="258.4,44.9 245.1,64 232,44.9 	"/>
	<path class="st0" d="M242.9,11.6c-0.5,0-0.8,0-1.2,0.1c-0.1,0-0.3,0.1-0.3,0.1c-0.1,0.7-0.5,0.4-0.9,0.3c-2.6-1-4.8-2.5-6.5-4.7
		c-0.1-0.3-0.4-0.5-0.5-0.8c0-0.3,0-0.8,0.1-1c1.2-1.2,2.3-2.3,3.5-3.5c0.3-0.3,0.7-0.4,0.9-0.5c0.4-0.3,0.8-0.5,1.2-0.7
		c0.1,0,0.1-0.1,0.3-0.1c0.8,0,1.6-0.1,2.2,0c1,0.4,2.1,1,3.1,1.6c0.4,0.3,1,0.3,1.4,0.4c1,0.1,2.1,0,3.3,0.1c0.8,0,1.6-0.1,2.2-0.7
		s1.4-0.9,2.2-1.3c1.2-0.7,2.2-0.3,2.5,0.9c0.7,2.2,1.2,4.3,1.7,6.5c0.3,1,0.7,2.2,1,3.3c0.3,0.5,0,1-0.7,1c-2,0-3.8,0-5.7,0
		c-1.3,0-2.6,0-3.9,0c-2,0-3.9-0.1-5.9-0.1c-0.1,0-0.3,0-0.4,0c-0.1-0.1-0.3-0.1-0.5-0.3c0.1-0.1,0.1-0.3,0.3-0.4
		C242.7,11.8,242.8,11.7,242.9,11.6z"/>
</g>
<g>
	<path class="st0" d="M171.6,30c1.3,0,2.6,0,3.9,0c0.1,1.1,0.3,2.1,0.4,3.3c0,0.5,0,1-0.1,1.5c-0.1,0.4,0,0.6,0.1,0.9
		c0.3,1,0.5,1.9,0.6,2.9c0.1,0.9,0.1,1.8,0.4,2.6c0.1-0.9,0.3-1.6,0.4-2.5c0.1-1.3,0.3-2.4,0.5-3.6c0-0.1,0.1-0.3,0.3-0.4
		c0.1-0.1,0.4-0.3,0.6-0.5c-0.8,0.1-0.8-0.3-0.8-0.8c0.3-1.1,0.4-2.3,0.5-3.4c1.1,0,2.1,0,3.3,0c0.1,0.6,0.3,1.3,0.3,1.9
		c0,0.1-0.1,0.4-0.3,0.5c0.4,0,0.4,0.5,0.5,0.9c0.4,2.5,0.6,5,1,7.5c0,0,0,0.1,0.1,0.3c0.1-1.3,0.3-2.5,0.4-3.6
		c0.1-0.8,0-1.5,0.5-2.3c0.1-0.1,0.1-0.3,0.1-0.4c-0.4-0.9-0.1-1.6,0.1-2.4c0.1-0.6,0.1-1.3,0.1-1.9c0-0.5,0.1-0.8,0.8-0.6
		c0.9,0,1.8,0,2.6,0c0.6,0,0.9,0.3,0.8,0.8c-0.1,1.1-0.3,2.3-0.4,3.4c-0.3,1.8-0.4,3.4-0.6,5.2c-0.3,2-0.5,4-0.8,6.2
		c0,0.5-0.1,1-0.1,1.4c0,0.3-0.3,0.6-0.3,0.9c0,0.1-0.1,0.3-0.1,0.4c0.4,0.9,0,1.8-0.3,2.6c0,0.1-0.1,0.3-0.1,0.5
		c-1.3,0-2.5,0-3.8,0c-0.1,0-0.3-0.3-0.3-0.4c-0.4-2.6-0.8-5.4-1.1-8c-0.1-1.1-0.4-2.1-0.6-3.3c-0.1,0.6-0.3,1.4-0.3,2
		c-0.4,2.6-0.8,5.4-1.1,8c0,0.4-0.1,0.9-0.1,1.3c0,0.4-0.1,0.4-0.5,0.4c-1.1,0-2.4,0-3.5,0c-0.3,0-0.4-0.1-0.5-0.4
		c-0.3-2.3-0.5-4.4-0.8-6.7c-0.4-2.9-0.8-5.8-1.1-8.7c-0.1-1.3-0.4-2.5-0.5-3.8C171.5,31.2,171.6,30.6,171.6,30z"/>
	<path class="st0" d="M152.6,51.3c-0.4,0-0.8,0-1,0c-1.1,0-2.3,0-3.4,0c-0.5,0-0.6-0.1-0.8-0.6c-0.6-2.8-1.4-5.5-2-8.2
		c-0.1-0.5-0.4-0.8-0.9-0.6c-0.1,0-0.3,0-0.4,0c-0.1,0.6-0.1,1.3-0.3,1.8c0,0.4-0.1,0.9-0.1,1.3c0,0.1,0,0.3,0,0.3
		c0.5,0.5,0.3,1.1,0.4,1.6c0,1.4,0,2.6,0,4c0,0.1-0.1,0.5-0.3,0.5c-1.4,0-2.6,0-3.9,0c-0.1-0.5,0.1-1.1-0.6-1.3c0-0.8,0-1.5,0-2.4
		c0-5.4,0-10.8,0-16.2c0-0.3,0-0.5,0-0.6c0-0.6,0.3-0.9,1-0.9c2.1,0,4.1,0,6.3,0.1c1.3,0,2.4,0.3,3.5,0.9c1.1,0.8,1.9,1.8,2.1,3.1
		c0.3,1.4,0.3,2.9-0.1,4.3c-0.3,1.1-0.9,2-1.9,2.5c-0.4,0.1-0.4,0.4-0.3,0.8c0.9,3,1.6,5.9,2.5,8.9
		C152.5,50.6,152.5,50.9,152.6,51.3z M144.2,33.4c0,1.8,0,3.6,0,5.7c0.8-0.1,1.5,0,2.1-0.3c0.4-0.1,0.9-0.5,1-0.8
		c0.6-1.3,0.6-2.6,0-3.9c-0.3-0.5-0.8-1-1.4-1C145.3,33.2,144.8,33.3,144.2,33.4z"/>
	<path class="st0" d="M167.7,39.1c0.1,0.4,0.4,0.9,0.5,1.4c0.1,0.3,0.3,0.6,0.3,0.9c0,1.6,0,3.4-0.1,5c-0.3,2-1,3.8-3.1,4.7
		c-0.5,0.3-1.1,0.4-1.6,0.5c-1.5,0.1-3,0.3-4.5-0.4c-2-0.8-2.9-2.4-3.3-4.3c-0.1-0.9-0.3-1.9-0.3-2.9c0-2.5,0-4.9,0-7.4
		c0-1.1,0.3-2.3,0.5-3.3c0.5-1.9,1.8-3,3.6-3.4c1.6-0.4,3.4-0.4,5,0.1c1.9,0.5,3,1.9,3.5,3.8c0.4,1.4,0.4,2.9,0.3,4.3
		C168.5,38.4,168,38.7,167.7,39.1z M163.4,40.7c0-1.8,0-3.6,0-5.4c0-0.4,0-0.8-0.1-1c-0.1-0.6-0.6-1-1.3-1s-1.1,0.3-1.3,1
		c-0.1,0.5-0.3,1-0.3,1.6c0,3.4,0,6.7,0,10.1c0,0.4,0,0.9,0.1,1.3c0.1,0.9,0.6,1.3,1.4,1.3c0.8,0,1.3-0.4,1.4-1.3
		c0-0.4,0.1-0.6,0.1-1C163.4,44.2,163.4,42.5,163.4,40.7z"/>
	<path class="st0" d="M131.1,37.8c0-1.3-0.1-2.3-0.1-3.3c0-0.9-0.5-1.3-1.3-1.4c-0.8,0-1.3,0.4-1.5,1.1c-0.1,0.4-0.1,0.8-0.1,1.1
		c0,1.6,0,3.3,0,5c0,0.3-0.1,0.5-0.1,0.8c0,0.1,0.1,0.4,0.1,0.8c0,1.3,0,2.6,0,3.9c0,0.4,0.1,0.9,0.3,1.3c0.3,0.8,0.6,1,1.4,1
		s1.1-0.3,1.3-1c0.1-1,0.1-2.1,0.1-3.1c0-0.5,0.1-0.8,0.6-0.6c1.3,0,2.4,0,3.6,0c0.3,0,0.5,0,0.5,0.4c0,1.5,0,3-0.4,4.5
		c-0.6,1.9-1.9,3-3.8,3.4c-1.5,0.3-3.1,0.3-4.7-0.1c-1.5-0.5-2.5-1.5-3.1-2.9c-0.3-0.6-0.5-1.4-0.5-2.1c-0.1-0.4,0.1-0.9,0.1-1.4
		c0-0.3,0.1-0.5,0-0.6c-0.4-0.6-0.1-1.1-0.3-1.8c0-0.5,0-1,0-1.5c0.1-2.3,0-4.5,0.3-6.8c0.3-2.1,1.5-3.8,3.6-4.3
		c1.9-0.5,3.6-0.5,5.5,0.1c1.8,0.6,2.6,2,2.9,3.6c0.1,0.9,0.3,1.8,0.3,2.5c0,1-0.3,1.4-1.3,1.4C133.4,37.8,132.3,37.8,131.1,37.8z"
		/>
</g>
<g>
	<path class="st0" d="M305.9,40.2c1.4,0.3,2.2,1.2,2.7,2.3c0.6,1.6,0.6,3.3,0,5c0,0.1-0.1,0.2-0.1,0.2c-0.6-0.1-0.5,0.3-0.5,0.7
		c0,0.7-0.6,1-1,1.5c-0.8,0.6-1.7,0.9-2.8,0.9c-2.3,0-4.5,0-6.9,0.1c-0.3,0-0.5-0.1-0.5-0.5c0-6.3,0-12.6,0-18.9
		c0-0.3,0.1-0.5,0.5-0.5c2,0,4,0,5.9,0.1c0.8,0,1.6,0.2,2.3,0.5c1.5,0.6,2.3,1.7,2.6,3.4c0.1,0.8,0.1,1.6,0,2.4
		C308.1,38.8,307.3,39.8,305.9,40.2z M301.3,42c0,2,0,3.8,0,5.7c0.5,0,0.9,0,1.3,0c0.8,0,1.4-0.5,1.7-1.3c0.3-1,0.3-2,0-3
		c-0.2-0.8-0.7-1.2-1.5-1.3C302.5,42,301.9,42,301.3,42z M301.3,34.2c0,1.6,0,3.1,0,4.8c0.9,0,2.1,0.2,2.7-0.8c0.6-0.9,0.6-2.1,0-3
		C303.4,34.1,302.4,34.2,301.3,34.2z"/>
	<path class="st0" d="M322.8,49.1c-0.1-0.2-0.2-0.5-0.2-0.6h-0.1c0,0.2-0.2,0.5-0.1,0.7c0.1,0.3,0,0.6-0.2,0.8
		c-0.8,0.6-1.6,0.9-2.7,1c-1.4,0.1-2.8,0.2-4.2-0.3c-1.7-0.7-2.7-2.1-3-3.8c-0.1-0.7-0.2-1.4-0.2-2c0-2.6,0-5.2,0-7.8
		c0-1.3,0.2-2.6,0.8-3.7c0.1-0.1,0.1-0.2,0.2-0.3c0.5-0.7,0.6-0.7,1,0h0.1c0-0.2,0-0.5,0-0.7c0-0.1,0-0.3,0.1-0.5
		c0.6-0.6,1.3-0.7,2-0.8c1.4-0.2,2.8-0.2,4.2,0.1c1.7,0.5,2.9,1.7,3.3,3.5c0.2,0.9,0.3,1.9,0.3,2.8c0,2.4,0,4.9,0,7.3
		c0,1.3-0.2,2.6-0.7,3.7C323,48.8,322.9,48.9,322.8,49.1z M319.2,41.1c0-1.7,0-3.4,0-5.1c0-0.3-0.1-0.7-0.2-1
		c-0.1-0.5-0.6-0.8-1.2-0.8s-0.9,0.2-1.2,0.8c-0.1,0.3-0.2,0.8-0.2,1.2c0,3.4,0,6.8,0,10.1c0,0.2,0,0.5,0.1,0.7c0.2,0.8,0.6,1,1.3,1
		c0.7,0,1.2-0.3,1.3-1c0.1-0.3,0.1-0.7,0.1-1C319.2,44.2,319.2,42.7,319.2,41.1z"/>
	<path class="st0" d="M349.5,36.6c-0.2-0.1-0.5-0.2-0.6-0.2c-0.2,0.1-0.3,0.2-0.5,0.2c-0.8,0.1-1.6,0.2-2.4,0.3c0-0.3-0.1-0.7-0.1-1
		s-0.1-0.7-0.2-1c-0.1-0.5-0.3-0.7-0.9-0.7c-0.5,0-0.8,0.2-0.9,0.7c-0.3,0.9-0.2,2,0.5,2.7c0.8,0.9,1.7,1.7,2.7,2.6
		c1,0.9,2,1.9,2.6,3.1c0.1,0.3,0.3,0.6-0.1,0.8c0.2,0.7,0.7,1.3,0.7,1.9c0.1,2.8-1.7,5-4.5,5.2c-0.8,0-1.7,0-2.7-0.2
		c-1.6-0.3-2.8-1.5-3.3-3.1c-0.2-0.7-0.3-1.5-0.5-2.3h0.1c0.1,0.1,0.3,0.2,0.6,0.5c0-0.5-0.1-0.8-0.1-1.3c0.7,0,1.3-0.3,1.9,0
		c0.3-0.6,0.9-0.3,1.4-0.5c0.1,0.6,0.1,1.2,0.2,1.7s0.2,0.8,0.5,1.2c0.2,0.5,0.8,0.7,1.4,0.5c0.6-0.1,0.6-0.6,0.7-1
		c0.1-1.3-0.5-2.3-1.4-3.3c-1-0.9-2.1-1.9-3-2.8c-0.3-0.3-0.8-0.6-0.8-1.2c0-0.1,0-0.3,0-0.5c-0.5,0-0.7-0.2-0.9-0.7
		c-0.6-2-0.6-3.8,0.7-5.6c0.7-0.9,1.7-1.5,2.9-1.7c1.4-0.2,2.8-0.3,4.1,0.3c1.2,0.6,1.9,1.4,2.1,2.8c0,0.1,0.1,0.2,0.1,0.3
		s0,0.3-0.1,0.5c0,0.1-0.1,0.3-0.1,0.5C349.2,35.8,349.4,36.2,349.5,36.6z"/>
	<path class="st0" d="M329.4,50.9c0-1,0-2,0-2.9c0-0.5,0-0.9,0-1.3c0-4,0-4-1.3-7.6c-0.8-2.4-1.6-4.9-2.4-7.5c0-0.1,0-0.2-0.1-0.3
		c0.2,0,0.3,0,0.6,0c1,0,2.1,0,3.1,0c0.3,0,0.6,0.1,0.6,0.5c0.5,1.7,1,3.5,1.5,5.1c0,0,0,0.1,0.1,0.2c0.1-0.6,0.3-1.2,0.5-1.6
		c0.3-1.3,0.7-2.6,1-3.8c0-0.1,0.2-0.3,0.3-0.3c1.3,0,2.4,0,3.8,0c-0.1,0.5-0.2,0.9-0.3,1.4c-0.7,2.2-1.4,4.4-2.1,6.5
		c-0.1,0.2-0.1,0.5-0.5,0.3c0,0-0.2,0.1-0.2,0.2c-0.1,0.2-0.1,0.6-0.1,0.8c-0.1,0.6-0.1,1-0.2,1.6c-0.1,0.5-0.2,1-0.2,1.5
		c0,2.2,0,4.4,0,6.8c0,0.5-0.1,0.5-0.6,0.5C332,50.9,330.7,50.9,329.4,50.9z"/>
</g>
</svg>
