<?xml version="1.0" encoding="utf-8"?>
<!-- Generator: Adobe Illustrator 26.3.1, SVG Export Plug-In . SVG Version: 6.00 Build 0)  -->
<svg version="1.1" id="Layer_1" xmlns="http://www.w3.org/2000/svg" xmlns:xlink="http://www.w3.org/1999/xlink" x="0px" y="0px"
	 viewBox="0 0 100 100" style="enable-background:new 0 0 100 100;" xml:space="preserve">
<style type="text/css">
	.st0{fill:#FFFFFF;}
</style>
<g>
	<path class="st0" d="M65.6,32.2c0.1,0.1,0.3,0.2,0.5,0.4c-1.1,0.7-2.2,1.5-3.2,2.2c0.1,0.3,0.3,0.7,0.4,1.1c0.1,0.7-0.4,1.1-1,1
		c-0.3-0.1-0.6-0.2-0.9-0.2c-0.4-0.1-0.7,0-0.8,0.4c-0.2,0.6-0.3,1.2-0.5,1.7c-0.1,0.2-0.1,0.4-0.2,0.6c0,0.1-0.2,0.2-0.3,0.2
		c-0.1,0-0.2-0.2-0.2-0.3c-0.1-0.6-0.2-1.2-0.3-1.9c0-0.1-0.1-0.3-0.1-0.4c-0.1-0.4-0.2-0.4-0.5-0.1c-0.8,0.8-1.5,1-2.6,0.5
		c-0.2-0.1-0.3-0.1-0.5-0.2c-0.9-0.6-1.8-0.6-2.8-0.3c-0.3,0.1-0.5,0.2-0.8,0.3c-1,0.5-1.9,0.5-2.8-0.1c-0.3-0.2-0.5-0.3-0.8-0.4
		c-0.4-0.1-0.7-0.1-1.1,0.1c-0.7,0.3-1.4,0.6-2.2,0.9c-0.1,0-0.3-0.1-0.4-0.2c-0.1-0.1-0.3-0.2-0.5-0.3c0.5,0.5,0.4,1,0.4,1.6
		c0.1,0.8,0.5,1.5,1.1,2.1c0.1,0.1,0.2,0.1,0.3,0.1c1.3-0.5,2.7-0.6,4-0.6c2.4,0,4.7,0.2,7.1,0.3c0.4,0,0.9,0.1,1.3,0.1
		c0.6,0,1,0.3,1.2,0.8c0.6,1.3,0.8,2.7,1,4.2C60,45.9,60,46,60,46.4c0.1,0.4,0,0.8,0,1.2c-0.1,0.7-0.1,1.3-0.2,2
		c0,0.6-0.7,1-1.2,0.6C58.4,50.1,58.2,50,58,50c-0.1,0-0.3,0.1-0.3,0.2c0,0.3-0.3,0.3-0.4,0.5c-0.3,0.2-0.6,0.5-0.9,0.7
		c0,0,0.1,0.1,0.1,0.1c1.6,0.3,3.1,0.5,4.7,0.8c0.4,0.1,0.8,0.1,1.2,0.2c0.1,0,0.1,0,0.2,0.1c0.3,0.5,0.9,0.5,1.3,0.6
		c0.3,0.1,0.6,0.1,0.8,0.2c0.1,0,0.2,0,0.3-0.1c0.5-0.3,1-0.4,1.6-0.4c9.7,0,19.3,0,29,0c0.4,0,0.7,0.1,1,0.3c0.2,0.1,0.5,0,0.8,0
		c0,0.4,0,1,0,1.4c-0.2,0-0.4-0.1-0.6-0.1c-6.3,0-12.7,0-19,0c-11.5,0-23.1,0-34.6,0c-13.1,0-26.2,0-39.3,0c-0.5,0-1,0-1.4,0
		c-0.1,0-0.3-0.2-0.3-0.3C1.8,53,1.8,52.9,3.1,53C3.7,53,4.3,53,4.9,53C5.7,53,6.5,53,7.3,53c1.3,0,2.6,0,4,0c1.3,0,2.6,0,3.9-0.1
		c5.2,0,10.5,0,15.7,0c0.4,0,0.8-0.1,1.1-0.3c0.5-0.2,0.9-0.4,1.3,0c0.2,0.2,0.5,0.2,0.7-0.2c0.1-0.1,0.2-0.2,0.4-0.3
		c1.2-0.2,2.4-0.4,3.6-0.6c0.1,0,0.1-0.1,0.2,0c0.7,0.3,1-0.2,1.3-0.7c0.2-0.3,0.4-0.7,0.6-0.9c0.2-0.2,0.5-0.4,0.7-0.5
		c0.1-0.1,0.2-0.1,0.3-0.2c0.6-0.6,1-0.7,1.8-0.3c0.5,0.3,0.9,0.6,1.4,0.9c0.4,0.3,0.9,0.6,1.3,0.9c0.1,0.1,0.2,0.1,0.3,0.1
		c-0.2-1.9-1.7-2.4-3.3-2.8c-0.5-0.1-1-0.2-1.6-0.3c0.2-0.2,0.3-0.3,0.4-0.4c-0.2-0.3-0.4-0.2-0.6-0.1c-0.3,0.2-0.4,0.1-0.6-0.1
		c-0.6-0.5-0.9-1.1-1-1.9c0-0.1,0.1-0.3,0.1-0.4c0-0.1,0-0.3,0-0.4c-0.1-0.5-0.2-0.9-0.2-1.4c0-0.3-0.1-0.5-0.4-0.5
		c-0.7-0.1-1.3-0.6-1.9-1.1c-0.6-0.6-0.5-1.4-0.4-2.2c0.1-0.3,0.1-0.7,0.2-1.1c-0.5-0.1-1-0.3-1.5-0.4c-1.6-0.4-2.9-1.3-4.2-2.2
		c-0.1,0-0.1-0.1-0.2-0.1c-0.3-0.7-0.7-1.3-0.8-2c-0.1-1.4-0.3-2.8-0.5-4.1c0,0,0,0,0,0c0.3-0.4,0.2-1,0.6-1.3
		c1.5-1.2,3.2-1.7,5-2.2c1-0.3,1.9-0.1,2.7,0.6c0.5,0.5,1.2,0.8,1.7,1.4c0.1,0.1,0.3,0.2,0.4,0.2c0.5-0.1,0.8,0.2,1.1,0.4
		c1.7,0.9,3.4,1.8,5.1,2.6c0.2,0.1,0.5,0.1,0.8,0.1c2.8,0,5.7,0,8.5-0.1c0.2,0,0.4,0.1,0.6,0.2c0.2,0,0.3,0.1,0.5,0.1
		c0.4,0,0.8,0,1.2-0.1c0.2,0,0.5,0,0.7,0c0.6,0,1.1-0.1,1.6-0.2c1.9-0.1,3.8-0.1,5.6-0.2c0.7,0,1.4-0.2,2-0.7
		c0.1-0.1,0.2-0.1,0.3-0.1c0,0.1,0.1,0.3,0.1,0.4c-0.4,0.6-0.7,1.3-1.5,1.4C66.1,32,65.9,32.1,65.6,32.2z M54.8,48.4
		c0.5-0.1,0.9-0.3,1.4-0.4c0.4-0.1,0.8-0.1,1.1-0.1c0.4,0,0.6-0.3,0.6-0.6c0.3-1.6-1-3.3-2.5-3.4c-0.8-0.1-1.7-0.1-2.5-0.1
		c-1,0-2,0.2-3,0.6c-0.5,0.2-0.8,0.6-0.9,1.1c-0.1,0.6-0.1,1.2-0.2,1.8c0,0.3,0.1,0.4,0.4,0.4c1.1,0.2,2.3,0.1,3.4,0.7
		c0,0,0.1,0,0.2,0c-0.1-0.2-0.2-0.4-0.2-0.6c-0.1-0.2-0.2-0.4-0.2-0.5c-0.1-0.4,0.1-0.8,0.5-0.8c0.6,0,1.3,0,1.9,0.1
		c0.5,0.1,0.6,0.4,0.5,0.9C55,47.8,54.9,48.1,54.8,48.4z M42.8,45.1c0-0.2,0-0.3,0-0.4c-0.2-0.9-0.3-1.7-0.5-2.6
		c-0.4-1.3-1-2.6-1.5-3.9c-0.1-0.3-0.3-0.5-0.4-0.7c-0.3-0.3-1.1-0.5-1.3-0.3c-0.2,0.2-0.3,0.6-0.3,0.9c0.1,0.8,0.2,1.7,0.4,2.5
		c0.1,0.4,0.4,0.9,0.8,1.1c0.6,0.5,1.1,1,1.4,1.7c0.2,0.3,0.4,0.6,0.6,0.9C42.3,44.6,42.5,44.8,42.8,45.1z"/>
	<path class="st0" d="M38.5,55.5c1,0,2.1,0,3.1,0c0.1,0.9,0.2,1.7,0.3,2.6c0,0.4,0,0.8-0.1,1.2c-0.1,0.3,0,0.5,0.1,0.7
		c0.2,0.8,0.4,1.5,0.5,2.3c0.1,0.7,0.1,1.4,0.3,2.1c0.1-0.7,0.2-1.3,0.3-2c0.1-1,0.2-1.9,0.4-2.9c0-0.1,0.1-0.2,0.2-0.3
		c0.1-0.1,0.3-0.2,0.5-0.4c-0.6,0.1-0.6-0.2-0.6-0.6c0.2-0.9,0.3-1.8,0.4-2.7c0.9,0,1.7,0,2.6,0c0.1,0.5,0.2,1,0.2,1.5
		c0,0.1-0.1,0.3-0.2,0.4c0.3,0,0.3,0.4,0.4,0.7c0.3,2,0.5,4,0.8,6c0,0,0,0.1,0.1,0.2c0.1-1,0.2-2,0.3-2.9c0.1-0.6,0-1.2,0.4-1.8
		c0.1-0.1,0.1-0.2,0.1-0.3c-0.3-0.7-0.1-1.3,0.1-1.9c0.1-0.5,0.1-1,0.1-1.5c0-0.4,0.1-0.6,0.6-0.5c0.7,0,1.4,0,2.1,0
		c0.5,0,0.7,0.2,0.6,0.6c-0.1,0.9-0.2,1.8-0.3,2.7c-0.2,1.4-0.3,2.7-0.5,4.1c-0.2,1.6-0.4,3.2-0.6,4.9c0,0.4-0.1,0.8-0.1,1.1
		c0,0.2-0.2,0.5-0.2,0.7c0,0.1-0.1,0.2-0.1,0.3c0.3,0.7,0,1.4-0.2,2.1c0,0.1-0.1,0.2-0.1,0.4c-1,0-2,0-3,0c-0.1,0-0.2-0.2-0.2-0.3
		c-0.3-2.1-0.6-4.3-0.9-6.4c-0.1-0.9-0.3-1.7-0.5-2.6c-0.1,0.5-0.2,1.1-0.2,1.6c-0.3,2.1-0.6,4.3-0.9,6.4c0,0.3-0.1,0.7-0.1,1
		c0,0.3-0.1,0.3-0.4,0.3c-0.9,0-1.9,0-2.8,0c-0.2,0-0.3-0.1-0.4-0.3c-0.2-1.8-0.4-3.5-0.6-5.3c-0.3-2.3-0.6-4.6-0.9-6.9
		c-0.1-1-0.3-2-0.4-3C38.4,56.4,38.5,56,38.5,55.5z"/>
	<path class="st0" d="M97.2,73.3c0,0.6,0,1.1,0,1.6c-0.2,0-0.3,0-0.5,0c-31.4,0-62.8,0-94.2,0C2.2,75,2,74.9,2,74.5
		c0-1.1,0-1.1,1.1-1.1c19.5,0,39,0,58.4,0c11.7,0,23.3,0,35,0C96.8,73.3,97,73.3,97.2,73.3z"/>
	<path class="st0" d="M46.9,29c-0.4,0-0.6,0-0.9,0.1c-0.1,0-0.2,0.1-0.2,0.1c-0.1,0.5-0.4,0.3-0.7,0.2c-2-0.8-3.7-1.9-5-3.6
		c-0.1-0.2-0.3-0.4-0.4-0.6c0-0.2,0-0.6,0.1-0.8c0.9-0.9,1.8-1.8,2.7-2.7c0.2-0.2,0.5-0.3,0.7-0.4c0.3-0.2,0.6-0.4,0.9-0.5
		c0.1,0,0.1-0.1,0.2-0.1c0.6,0,1.2-0.1,1.7,0c0.8,0.3,1.6,0.8,2.4,1.2c0.3,0.2,0.8,0.2,1.1,0.3c0.8,0.1,1.6,0,2.5,0.1
		c0.6,0,1.2-0.1,1.7-0.5c0.5-0.4,1.1-0.7,1.7-1c0.9-0.5,1.7-0.2,1.9,0.7c0.5,1.7,0.9,3.3,1.3,5c0.2,0.8,0.5,1.7,0.8,2.5
		c0.2,0.4,0,0.8-0.5,0.8c-1.5,0-2.9,0-4.4,0c-1,0-2,0-3,0c-1.5,0-3-0.1-4.5-0.1c-0.1,0-0.2,0-0.3,0c-0.1-0.1-0.2-0.1-0.4-0.2
		c0.1-0.1,0.1-0.2,0.2-0.3C46.7,29.2,46.8,29.1,46.9,29z"/>
	<path class="st0" d="M62,63.3c1.2,0.3,1.9,1,2.3,2c0.5,1.4,0.5,2.8,0,4.3c0,0.1-0.1,0.2-0.1,0.2c-0.5-0.1-0.4,0.3-0.4,0.6
		c0,0.6-0.5,0.9-0.9,1.3c-0.7,0.5-1.5,0.8-2.4,0.8c-2,0-3.9,0-5.9,0.1c-0.3,0-0.4-0.1-0.4-0.4c0-5.4,0-10.8,0-16.2
		c0-0.3,0.1-0.4,0.4-0.4c1.7,0,3.4,0,5.1,0.1c0.7,0,1.4,0.2,2,0.4c1.3,0.5,2,1.5,2.2,2.9c0.1,0.7,0.1,1.4,0,2.1
		C63.9,62.1,63.2,62.9,62,63.3z M58.1,64.8c0,1.7,0,3.3,0,4.9c0.4,0,0.8,0,1.1,0c0.7,0,1.2-0.4,1.5-1.1c0.3-0.9,0.3-1.7,0-2.6
		c-0.2-0.7-0.6-1-1.3-1.1C59.1,64.8,58.6,64.8,58.1,64.8z M58.1,58.1c0,1.4,0,2.7,0,4.1c0.8,0,1.8,0.2,2.3-0.7
		c0.5-0.8,0.5-1.8,0-2.6C59.9,58,59,58.1,58.1,58.1z"/>
	<path class="st0" d="M23.4,72.4c-0.3,0-0.6,0-0.8,0c-0.9,0-1.8,0-2.7,0c-0.4,0-0.5-0.1-0.6-0.5c-0.5-2.2-1.1-4.4-1.6-6.5
		c-0.1-0.4-0.3-0.6-0.7-0.5c-0.1,0-0.2,0-0.3,0c-0.1,0.5-0.1,1-0.2,1.4c0,0.3-0.1,0.7-0.1,1c0,0.1,0,0.2,0,0.2
		c0.4,0.4,0.2,0.9,0.3,1.3c0,1.1,0,2.1,0,3.2c0,0.1-0.1,0.4-0.2,0.4c-1.1,0-2.1,0-3.1,0c-0.1-0.4,0.1-0.9-0.5-1c0-0.6,0-1.2,0-1.9
		c0-4.3,0-8.6,0-12.9c0-0.2,0-0.4,0-0.5c0-0.5,0.2-0.7,0.8-0.7c1.7,0,3.3,0,5,0.1c1,0,1.9,0.2,2.8,0.7c0.9,0.6,1.5,1.4,1.7,2.5
		c0.2,1.1,0.2,2.3-0.1,3.4c-0.2,0.9-0.7,1.6-1.5,2c-0.3,0.1-0.3,0.3-0.2,0.6c0.7,2.4,1.3,4.7,2,7.1C23.3,71.9,23.3,72.1,23.4,72.4z
		 M16.7,58.2c0,1.4,0,2.9,0,4.5c0.6-0.1,1.2,0,1.7-0.2c0.3-0.1,0.7-0.4,0.8-0.6c0.5-1,0.5-2.1,0-3.1c-0.2-0.4-0.6-0.8-1.1-0.8
		C17.6,58,17.2,58.1,16.7,58.2z"/>
	<path class="st0" d="M76.5,70.9c-0.1-0.2-0.2-0.4-0.2-0.5c0,0-0.1,0-0.1,0c0,0.2-0.2,0.4-0.1,0.6c0.1,0.3,0,0.5-0.2,0.7
		c-0.7,0.5-1.4,0.8-2.3,0.9c-1.2,0.1-2.4,0.2-3.6-0.3c-1.5-0.6-2.3-1.8-2.6-3.3c-0.1-0.6-0.2-1.2-0.2-1.7c0-2.2,0-4.5,0-6.7
		c0-1.1,0.2-2.2,0.7-3.2c0.1-0.1,0.1-0.2,0.2-0.3c0.4-0.6,0.5-0.6,0.9,0c0,0,0.1,0,0.1,0c0-0.2,0-0.4,0-0.6c0-0.1,0-0.3,0.1-0.4
		c0.5-0.5,1.1-0.6,1.7-0.7c1.2-0.2,2.4-0.2,3.6,0.1c1.5,0.4,2.5,1.5,2.8,3c0.2,0.8,0.3,1.6,0.3,2.4c0,2.1,0,4.2,0,6.3
		c0,1.1-0.2,2.2-0.6,3.2C76.7,70.6,76.6,70.7,76.5,70.9z M73.4,64c0-1.5,0-2.9,0-4.4c0-0.3-0.1-0.6-0.2-0.9c-0.1-0.4-0.5-0.7-1-0.7
		c-0.5,0-0.8,0.2-1,0.7c-0.1,0.3-0.2,0.7-0.2,1c0,2.9,0,5.8,0,8.7c0,0.2,0,0.4,0.1,0.6c0.2,0.7,0.5,0.9,1.1,0.9c0.6,0,1-0.3,1.1-0.9
		c0.1-0.3,0.1-0.6,0.1-0.9C73.4,66.7,73.4,65.4,73.4,64z"/>
	<path class="st0" d="M35.4,62.7c0.1,0.3,0.3,0.7,0.4,1.1c0.1,0.2,0.2,0.5,0.2,0.7c0,1.3,0,2.7-0.1,4c-0.2,1.6-0.8,3-2.5,3.7
		c-0.4,0.2-0.9,0.3-1.3,0.4c-1.2,0.1-2.4,0.2-3.6-0.3c-1.6-0.6-2.3-1.9-2.6-3.4c-0.1-0.7-0.2-1.5-0.2-2.3c0-2,0-3.9,0-5.9
		c0-0.9,0.2-1.8,0.4-2.6c0.4-1.5,1.4-2.4,2.9-2.7c1.3-0.3,2.7-0.3,4,0.1c1.5,0.4,2.4,1.5,2.8,3c0.3,1.1,0.3,2.3,0.2,3.4
		C36,62.2,35.6,62.4,35.4,62.7z M32,64c0-1.4,0-2.9,0-4.3c0-0.3,0-0.6-0.1-0.8c-0.1-0.5-0.5-0.8-1-0.8c-0.5,0-0.9,0.2-1,0.8
		c-0.1,0.4-0.2,0.8-0.2,1.3c0,2.7,0,5.3,0,8c0,0.3,0,0.7,0.1,1c0.1,0.7,0.5,1,1.1,1c0.6,0,1-0.3,1.1-1c0-0.3,0.1-0.5,0.1-0.8
		C32,66.8,32,65.4,32,64z"/>
	<path class="st0" d="M6.3,61.7c0-1-0.1-1.8-0.1-2.6c0-0.7-0.4-1-1-1.1c-0.6,0-1,0.3-1.2,0.9c-0.1,0.3-0.1,0.6-0.1,0.9
		c0,1.3,0,2.6,0,4c0,0.2-0.1,0.4-0.1,0.6c0,0.1,0.1,0.3,0.1,0.6c0,1,0,2.1,0,3.1c0,0.3,0.1,0.7,0.2,1c0.2,0.6,0.5,0.8,1.1,0.8
		c0.6,0,0.9-0.2,1-0.8c0.1-0.8,0.1-1.7,0.1-2.5c0-0.4,0.1-0.6,0.5-0.5c1,0,1.9,0,2.9,0c0.2,0,0.4,0,0.4,0.3c0,1.2,0,2.4-0.3,3.6
		c-0.5,1.5-1.5,2.4-3,2.7c-1.2,0.2-2.5,0.2-3.7-0.1c-1.2-0.4-2-1.2-2.5-2.3c-0.2-0.5-0.4-1.1-0.4-1.7c-0.1-0.3,0.1-0.7,0.1-1.1
		c0-0.2,0.1-0.4,0-0.5c-0.3-0.5-0.1-0.9-0.2-1.4c0-0.4,0-0.8,0-1.2c0.1-1.8,0-3.6,0.2-5.4c0.2-1.7,1.2-3,2.9-3.4
		c1.5-0.4,2.9-0.4,4.4,0.1c1.4,0.5,2.1,1.6,2.3,2.9c0.1,0.7,0.2,1.4,0.2,2c0,0.8-0.2,1.1-1,1.1C8.1,61.7,7.2,61.7,6.3,61.7z"/>
	<path class="st0" d="M99.4,60.2c-0.2-0.1-0.4-0.2-0.5-0.2c-0.2,0.1-0.3,0.2-0.4,0.2c-0.7,0.1-1.4,0.2-2.1,0.3
		c0-0.3-0.1-0.6-0.1-0.9c0-0.3-0.1-0.6-0.2-0.9c-0.1-0.4-0.3-0.6-0.8-0.6c-0.4,0-0.7,0.2-0.8,0.6c-0.3,0.8-0.2,1.7,0.4,2.3
		c0.7,0.8,1.5,1.5,2.3,2.2c0.9,0.8,1.7,1.6,2.2,2.7c0.1,0.3,0.3,0.5-0.1,0.7c0.2,0.6,0.6,1.1,0.6,1.6c0.1,2.4-1.5,4.3-3.9,4.5
		c-0.7,0-1.5,0-2.3-0.2c-1.4-0.3-2.4-1.3-2.8-2.7c-0.2-0.6-0.3-1.3-0.4-2c0,0,0.1,0,0.1,0c0.1,0.1,0.3,0.2,0.5,0.4
		c0-0.4-0.1-0.7-0.1-1.1c0.6,0,1.1-0.3,1.6,0c0.3-0.5,0.8-0.3,1.2-0.4c0.1,0.5,0.1,1,0.2,1.5c0.1,0.4,0.2,0.7,0.4,1
		c0.2,0.4,0.7,0.6,1.2,0.4c0.5-0.1,0.5-0.5,0.6-0.9c0.1-1.1-0.4-2-1.2-2.8c-0.9-0.8-1.8-1.6-2.6-2.4c-0.3-0.3-0.7-0.5-0.7-1
		c0-0.1,0-0.3,0-0.4c-0.4,0-0.6-0.2-0.8-0.6c-0.5-1.7-0.5-3.3,0.6-4.8c0.6-0.8,1.5-1.3,2.5-1.5c1.2-0.2,2.4-0.3,3.5,0.3
		c1,0.5,1.6,1.2,1.8,2.4c0,0.1,0.1,0.2,0.1,0.3c0,0.1,0,0.3-0.1,0.4c0,0.1-0.1,0.3-0.1,0.4C99.2,59.5,99.3,59.8,99.4,60.2z"/>
	<path class="st0" d="M82.2,72.4c0-0.9,0-1.7,0-2.5c0-0.4,0-0.8,0-1.1c0-3.4,0-3.4-1.1-6.5c-0.7-2.1-1.4-4.2-2.1-6.4
		c0-0.1,0-0.2-0.1-0.3c0.2,0,0.3,0,0.5,0c0.9,0,1.8,0,2.7,0c0.3,0,0.5,0.1,0.5,0.4c0.4,1.5,0.9,3,1.3,4.4c0,0,0,0.1,0.1,0.2
		c0.1-0.5,0.3-1,0.4-1.4c0.3-1.1,0.6-2.2,0.9-3.3c0-0.1,0.2-0.3,0.3-0.3c1.1,0,2.1,0,3.3,0c-0.1,0.4-0.2,0.8-0.3,1.2
		c-0.6,1.9-1.2,3.8-1.8,5.6c-0.1,0.2-0.1,0.4-0.4,0.3c0,0-0.2,0.1-0.2,0.2c-0.1,0.2-0.1,0.5-0.1,0.7c-0.1,0.5-0.1,0.9-0.2,1.4
		c-0.1,0.4-0.2,0.9-0.2,1.3c0,1.9,0,3.8,0,5.8c0,0.4-0.1,0.4-0.5,0.4C84.4,72.4,83.3,72.4,82.2,72.4z"/>
</g>
</svg>
